<svg width="76" height="78" viewBox="0 0 76 78" fill="none" xmlns="http://www.w3.org/2000/svg">
<rect width="76" height="78" rx="10" fill="#EFF6FE"/>
<g clip-path="url(#clip0_342_9851)">
<path d="M47.9678 45.7672C48.2833 43.5253 48.44 41.264 48.4365 39C48.44 36.736 48.2833 34.4747 47.9678 32.2328H56.831C58.3974 36.6083 58.3974 41.3917 56.831 45.7672H47.9678ZM38.0029 59C36.0498 59 34.056 56.9953 32.5271 53.5008C31.8287 51.9047 31.2599 50.0852 30.8342 48.1102H45.1717C44.7459 50.0844 44.1771 51.9039 43.4787 53.5008C41.9498 56.9953 39.956 59 38.0029 59ZM30.406 45.7672C29.7477 41.2797 29.7477 36.7203 30.406 32.2328H45.5998C45.9327 34.4731 46.0978 36.7351 46.0935 39C46.0978 41.2649 45.9327 43.5269 45.5998 45.7672H30.406ZM19.1748 45.7672C17.6084 41.3917 17.6084 36.6083 19.1748 32.2328H28.0381C27.412 36.7226 27.412 41.2774 28.0381 45.7672H19.1748ZM38.0029 19C39.956 19 41.9498 21.0039 43.4787 24.4992C44.1771 26.0953 44.7459 27.9148 45.1717 29.8898H30.8342C31.2599 27.9156 31.8287 26.0961 32.5271 24.4992C34.056 21.0039 36.0498 19 38.0029 19ZM55.8154 29.8891H47.5638C47.0951 27.5688 46.4435 25.4273 45.6263 23.5609C44.9646 22.0469 44.2146 20.7648 43.3935 19.732C46.056 20.4694 48.5356 21.7533 50.6744 23.5021C52.8131 25.2509 54.564 27.4261 55.8154 29.8891ZM32.6123 19.7312C31.7935 20.7648 31.0443 22.0461 30.3818 23.5594C29.5646 25.4273 28.9138 27.5688 28.4443 29.8875H20.1904C21.4421 27.4248 23.1931 25.2499 25.3318 23.5013C27.4705 21.7526 29.95 20.4687 32.6123 19.7312ZM20.1904 48.1109H28.442C28.9107 50.4312 29.5623 52.5727 30.3795 54.4391C31.042 55.9523 31.7912 57.2336 32.6099 58.2672C29.948 57.5297 27.4688 56.2457 25.3305 54.4971C23.1922 52.7484 21.4417 50.5735 20.1904 48.1109ZM43.3935 58.2672C44.2123 57.2336 44.9623 55.9523 45.624 54.4391C46.4412 52.5711 47.092 50.4297 47.5615 48.1109H55.8154C54.564 50.574 52.8131 52.7493 50.6744 54.4982C48.5357 56.2471 46.056 57.5313 43.3935 58.2688V58.2672Z" fill="#0B57CF"/>
</g>
<defs>
<clipPath id="clip0_342_9851">
<rect width="40" height="40" fill="white" transform="translate(18 19)"/>
</clipPath>
</defs>
</svg>
