<svg width="24" height="24" viewBox="0 0 24 24" fill="none" xmlns="http://www.w3.org/2000/svg">
<g clip-path="url(#clip0_342_12476)">
<path d="M8.1875 21.4703C8.47565 21.592 8.76768 21.7051 9.06553 21.8011C8.91515 21.3412 8.88652 21.2913 8.578 20.3623L8.1875 21.4703Z" fill="#0B57CF"/>
<path d="M14.788 21.1903C15.5253 19.3421 16.0395 17.4454 16.3354 15.5244H10.2863L9.11719 18.8425C9.73908 20.8314 9.81282 20.9463 10.1859 22.0917C11.5824 22.3876 13.0969 22.388 14.4853 22.0984C14.4853 22.0989 14.788 21.1903 14.788 21.1903Z" fill="#0B57CF"/>
<path d="M1.66406 11.643C1.66406 12.6321 1.80717 13.611 2.07494 14.5536H4.51158L7.11655 13.1662C7.03311 11.6867 7.07532 10.2028 7.23734 8.73242H2.07106C1.80765 9.65847 1.66406 10.634 1.66406 11.643Z" fill="#0B57CF"/>
<path d="M1.66761 17.5182C1.68701 17.7123 1.82284 17.8772 2.01688 17.9306C2.66303 18.1159 4.53696 18.6524 5.15109 18.8275C5.32524 19.4402 5.86515 21.3229 6.04803 21.9617C6.16106 22.4051 6.83001 22.4332 6.96972 21.9908C7.87006 19.4271 8.98093 16.2885 9.8803 13.7442C9.99818 13.442 9.74593 13.0878 9.42431 13.099C9.27635 13.0578 3.02443 16.452 1.91986 17.038C1.74523 17.1302 1.64335 17.3193 1.66761 17.5182Z" fill="#0B57CF"/>
<path d="M10.6287 14.5536H16.4644C16.689 12.6166 16.6798 10.666 16.4581 8.73242H8.21436C8.06544 10.0344 8.01402 11.3466 8.06738 12.6569C8.45157 12.4667 8.97839 12.0971 9.42565 12.1281C10.3992 12.1063 11.1482 13.1512 10.7985 14.0685L10.6287 14.5536Z" fill="#0B57CF"/>
<path d="M14.4599 1.18543C13.0909 0.90165 11.5682 0.90165 10.1992 1.18592L9.87569 2.10178C9.14707 3.92817 8.63917 5.83072 8.34375 7.76286H16.3217C16.0131 5.52414 15.2675 3.32374 14.4599 1.18543Z" fill="#0B57CF"/>
<path d="M22.2785 15.5244H17.3266C17.0826 17.62 16.337 19.901 15.6094 21.8016C18.6762 20.8178 21.1152 18.4927 22.2785 15.5244Z" fill="#0B57CF"/>
<path d="M2.39844 7.76251H7.35031C7.59431 5.66689 8.3399 3.38548 9.06755 1.48535C6.00077 2.46913 3.5617 4.7942 2.39844 7.76251Z" fill="#0B57CF"/>
<path d="M15.6016 1.4834C16.4039 3.52469 17.0132 5.6271 17.3178 7.76346H22.2789C21.1147 4.79273 18.6572 2.46669 15.6016 1.4834Z" fill="#0B57CF"/>
<path d="M17.4375 8.73242C17.6524 10.6675 17.6645 12.618 17.4506 14.5536H22.6033C23.1418 12.7175 23.1418 10.5685 22.6033 8.73242H17.4375Z" fill="#0B57CF"/>
</g>
<defs>
<clipPath id="clip0_342_12476">
<rect width="23.2846" height="23.2846" fill="white" transform="translate(0.695312)"/>
</clipPath>
</defs>
</svg>
