<svg width="46" height="46" viewBox="0 0 46 46" fill="none" xmlns="http://www.w3.org/2000/svg">
<ellipse cx="23.2926" cy="23.3502" rx="22.4176" ry="22.4176" fill="#1C74FF"/>
<g clip-path="url(#clip0_342_9477)">
<path d="M33.1889 24.116L28.6384 28.6665C28.3876 28.9173 28.0589 29.0427 27.7302 29.0427C27.4015 29.0427 27.0729 28.9173 26.822 28.6665C26.3205 28.1649 26.3205 27.3518 26.822 26.8502L29.1801 24.4922H14.3C13.5906 24.4922 13.0156 23.9172 13.0156 23.2079C13.0156 22.4986 13.5906 21.9235 14.3 21.9235H29.1801L26.822 19.5656C26.3205 19.064 26.3205 18.2508 26.822 17.7492C27.3237 17.2477 28.1368 17.2477 28.6384 17.7492L33.1889 22.2997C33.6905 22.8013 33.6905 23.6145 33.1889 24.116Z" fill="white"/>
</g>
<defs>
<clipPath id="clip0_342_9477">
<rect width="20.5495" height="20.5495" fill="white" transform="translate(13.0156 12.9326)"/>
</clipPath>
</defs>
</svg>
