<svg width="76" height="78" viewBox="0 0 76 78" fill="none" xmlns="http://www.w3.org/2000/svg">
<rect width="76" height="78" rx="10" fill="#EFF6FE"/>
<path fill-rule="evenodd" clip-rule="evenodd" d="M23.0526 35.5014L30.404 29.0673C30.3021 28.789 30.2466 28.4886 30.2466 28.175C30.2466 26.7416 31.4086 25.5796 32.842 25.5796C34.248 25.5796 35.3927 26.6976 35.4361 28.0931L41.2464 30.1273C41.7224 29.5685 42.4312 29.214 43.2227 29.214C43.6694 29.214 44.0896 29.3268 44.4566 29.5255L51.1549 23.8025C51.0599 23.5326 51.008 23.2425 51.008 22.9401C51.008 21.5068 52.1701 20.3447 53.6034 20.3447C55.037 20.3447 56.199 21.5068 56.199 22.9401C56.199 24.3736 55.037 25.5357 53.6034 25.5357C53.1569 25.5357 52.7366 25.4229 52.3697 25.2242L45.6713 30.9472C45.7663 31.2171 45.8182 31.5072 45.8182 31.8096C45.8182 33.2429 44.6562 34.405 43.2227 34.405C41.8167 34.405 40.672 33.287 40.6287 31.8916L34.8184 29.8574C34.3423 30.4162 33.6336 30.7707 32.842 30.7707C32.4061 30.7707 31.9955 30.6631 31.6348 30.4732L24.2834 36.9073C24.3853 37.1855 24.4409 37.4861 24.4409 37.7996C24.4409 39.2331 23.2788 40.395 21.8453 40.395C20.412 40.3948 19.25 39.2329 19.25 37.7994C19.25 36.3659 20.412 35.204 21.8454 35.204C22.2812 35.204 22.692 35.3115 23.0526 35.5014ZM51.6291 30.6612C50.9837 30.6612 50.4572 31.1876 50.4572 31.8331V55.7493C50.4572 56.3948 50.9837 56.9212 51.6291 56.9212H55.5781C56.2237 56.9212 56.7501 56.3948 56.7501 55.7493V31.8331C56.7501 31.1876 56.2238 30.6612 55.5781 30.6612H51.6291ZM41.2482 40.2182C40.6027 40.2182 40.0764 40.7446 40.0764 41.3901V55.9943C40.0764 56.6399 40.6028 57.1662 41.2482 57.1662H45.1974C45.8429 57.1662 46.3692 56.6398 46.3692 55.9943C46.3692 51.1264 46.3692 46.2582 46.3692 41.3901C46.3692 40.7446 45.8429 40.2182 45.1974 40.2182C43.8809 40.2182 42.5647 40.2182 41.2482 40.2182ZM30.8675 36.7872C30.222 36.7872 29.6955 37.3136 29.6955 37.9591V56.2393C29.6955 56.8848 30.2219 57.4112 30.8675 57.4112H34.8166C35.462 57.4112 35.9884 56.8848 35.9884 56.2393V37.9591C35.9884 37.3136 35.462 36.7872 34.8166 36.7872H30.8675ZM20.4867 46.8745H24.4357C25.0812 46.8745 25.6077 47.4009 25.6077 48.0464V56.4843C25.6077 57.1297 25.0812 57.6561 24.4357 57.6561H20.4867C19.8413 57.6561 19.3148 57.1297 19.3148 56.4843V48.0464C19.3148 47.4008 19.8413 46.8745 20.4867 46.8745Z" fill="#0B57CF"/>
</svg>
