<svg width="18" height="19" viewBox="0 0 18 19" fill="none" xmlns="http://www.w3.org/2000/svg">
<path d="M14 18.7832H3.99999C2.93162 18.7832 1.92714 18.3671 1.17159 17.6116C0.416078 16.8561 0 15.8516 0 14.7832V13.7831C0 13.2308 0.447692 12.7831 1.00001 12.7831C1.55232 12.7831 2.00001 13.2308 2.00001 13.7831V14.7832C2.00001 15.3174 2.20807 15.8196 2.58576 16.1973C2.96355 16.5751 3.46577 16.7832 3.99999 16.7832H14C14.5342 16.7832 15.0364 16.5751 15.4141 16.1973C15.7919 15.8195 16 15.3173 16 14.7832V13.7831C16 13.2308 16.4477 12.7831 17 12.7831C17.5522 12.7831 18 13.2308 18 13.7831V14.7832C18 15.8515 17.5839 16.856 16.8284 17.6116C16.0728 18.3671 15.0683 18.7832 14 18.7832ZM8.99998 14.7831C8.86165 14.7831 8.72996 14.7551 8.61014 14.7043C8.49835 14.6571 8.39331 14.5885 8.30141 14.4987C8.30137 14.4987 8.30137 14.4987 8.30134 14.4987C8.30067 14.498 8.30001 14.4974 8.29935 14.4967C8.29917 14.4966 8.29896 14.4963 8.29879 14.4961C8.29823 14.4957 8.29774 14.4951 8.29721 14.4946C8.29687 14.4943 8.29655 14.494 8.2962 14.4936C8.29585 14.4932 8.2954 14.4928 8.29508 14.4925C8.29439 14.4918 8.29362 14.491 8.29292 14.4903L4.2929 10.4903C3.90239 10.0998 3.90239 9.46659 4.2929 9.07605C4.6834 8.68554 5.31662 8.68551 5.70713 9.07605L8.00001 11.3689V1.78321C7.99998 1.23089 8.44767 0.783203 8.99998 0.783203C9.5523 0.783203 10 1.23089 10 1.78321V11.3689L12.2929 9.07605C12.6833 8.68554 13.3166 8.68554 13.7071 9.07605C14.0976 9.46656 14.0976 10.0998 13.7071 10.4903L9.70708 14.4903C9.70638 14.491 9.70561 14.4917 9.70492 14.4924C9.70453 14.4928 9.70411 14.4932 9.7038 14.4935C9.70345 14.4939 9.70313 14.4942 9.70278 14.4945C9.7023 14.4951 9.70174 14.4956 9.70125 14.4961C9.70107 14.4962 9.70083 14.4965 9.70065 14.4966C9.70002 14.4973 9.69936 14.498 9.6987 14.4986C9.69866 14.4986 9.69866 14.4986 9.69863 14.4987C9.68762 14.5094 9.67648 14.5198 9.66509 14.5299C9.58136 14.6046 9.48809 14.6628 9.38948 14.7044C9.38913 14.7045 9.38885 14.7047 9.3885 14.7048C9.38811 14.705 9.3878 14.7052 9.38742 14.7053C9.26823 14.7555 9.13737 14.7831 8.99998 14.7831Z" fill="white"/>
</svg>
