<svg width="76" height="78" viewBox="0 0 76 78" fill="none" xmlns="http://www.w3.org/2000/svg">
<rect width="76" height="78" rx="10" fill="#EFF6FE"/>
<path d="M18 31.1816V53.1941L32.4612 40.0994L18 31.1816Z" fill="#0B57CF"/>
<path d="M41.4054 41.377L38.5864 43.1154C38.3982 43.2315 38.1852 43.2895 37.9723 43.2895C37.7593 43.2895 37.5464 43.2315 37.3582 43.1154L34.5391 41.377L19.625 54.8818H56.3195L41.4054 41.377Z" fill="#0B57CF"/>
<path d="M19.5 29.3574L37.9665 40.7451L43.5707 37.2893C41.8797 35.535 40.8381 33.1508 40.8381 30.5275C40.8381 30.1316 40.8624 29.7413 40.9085 29.3575H19.5V29.3574Z" fill="#0B57CF"/>
<path d="M50.591 40.2786C48.7302 40.2786 46.9896 39.7543 45.5087 38.846L43.4766 40.0992L57.9377 53.194V36.9316C56.1489 38.9813 53.5187 40.2786 50.591 40.2786Z" fill="#0B57CF"/>
<path d="M50.5898 23.1172C46.4973 23.1172 43.1797 26.4348 43.1797 30.5273C43.1797 34.6198 46.4973 37.9374 50.5898 37.9374C54.6823 37.9374 57.9999 34.6198 57.9999 30.5273C57.9999 26.4348 54.6822 23.1172 50.5898 23.1172ZM51.9303 33.2399C51.9303 33.886 51.4065 34.4099 50.7603 34.4099C50.1141 34.4099 49.5903 33.886 49.5903 33.2399V29.8506C49.1089 29.9775 48.5807 29.785 48.3019 29.3409C47.9583 28.7936 48.1234 28.0714 48.6707 27.7278L50.1382 26.8064C50.4986 26.58 50.9537 26.5673 51.3264 26.7733C51.699 26.9794 51.9303 27.3715 51.9303 27.7973V33.2399Z" fill="#0B57CF"/>
</svg>
