<svg width="60" height="61" viewBox="0 0 60 61" fill="none" xmlns="http://www.w3.org/2000/svg">
<path d="M50.2105 39.4861C50.2105 40.4773 49.4037 41.2835 48.412 41.2835C47.4204 41.2835 46.6102 40.4773 46.6102 39.4861C46.6102 38.4949 47.4184 37.6922 48.412 37.6922C49.4057 37.6922 50.2105 38.4969 50.2105 39.4861ZM59.0627 39.9322C59.0627 46.3877 53.7275 51.6327 49.8319 55.4624C49.5408 55.7487 49.2591 56.0255 48.9904 56.2927C48.8304 56.4517 48.6212 56.5312 48.4119 56.5312C48.2026 56.5312 47.9939 56.4518 47.8338 56.293C47.5669 56.0279 47.2874 55.7532 46.9983 55.4694C43.0986 51.6384 37.7576 46.3917 37.7576 39.9323C37.7576 34.0664 42.5371 29.2941 48.4118 29.2941C54.2865 29.2941 59.0625 34.0664 59.0625 39.9323L59.0627 39.9322ZM53.7261 39.4861C53.7261 36.5584 51.3422 34.1766 48.412 34.1766C45.4819 34.1766 43.0945 36.5584 43.0945 39.4861C43.0945 42.4138 45.4799 44.7991 48.412 44.7991C51.3442 44.7991 53.7261 42.4158 53.7261 39.4861ZM39.3013 15.7235C39.1259 16.0247 39.0728 16.3095 39.1365 16.6413C39.4545 16.736 40.3785 16.8886 42.6475 16.572C45.0437 16.2371 46.2062 17.0982 46.7598 17.8798C47.6016 19.0683 47.5358 20.7462 46.5748 22.6044C46.2954 23.1445 44.7996 25.8393 42.7805 25.8393C40.745 25.8393 39.3079 25.3838 38.2586 25.0512C37.9825 24.9636 37.6266 24.8509 37.41 24.8059C37.3714 24.8602 37.3207 24.9388 37.2592 25.0502C37.2656 25.0642 37.2718 25.0778 37.2777 25.0905C37.7914 26.2034 38.1061 27.59 36.6429 29.4844C36.8634 29.7892 37.3141 30.2268 37.7464 30.6244C40.3458 27.6562 44.1633 25.7783 48.412 25.7783C50.0399 25.7783 51.6041 26.055 53.0612 26.5622C52.2952 21.2757 49.935 16.3778 46.2177 12.4369C42.6757 13.2022 40.0455 14.4462 39.3013 15.7234V15.7235ZM34.2422 39.9323C34.2422 37.6445 34.7891 35.4821 35.7581 33.5677C34.9665 32.8582 34.2308 32.1759 33.7193 31.4298C32.3824 29.4797 33.2877 28.0223 33.739 27.4862C34.068 27.0942 34.1638 26.8759 34.1896 26.8014C34.1678 26.7421 34.1215 26.6416 34.0857 26.5644C33.8505 26.055 33.3611 24.9948 34.0054 23.6884C35.5736 20.5124 37.8285 21.2269 39.3205 21.7C40.1782 21.9717 41.1425 22.2773 42.4725 22.3189C42.6823 22.1337 43.0419 21.7241 43.3596 21.1601C43.64 20.6623 43.7666 20.2621 43.8107 20.0153C43.6659 20.0063 43.4475 20.0099 43.1337 20.0537C41.5958 20.2684 40.3696 20.3289 39.3852 20.2388C37.0154 20.0221 36.1604 18.8913 35.8605 17.9809C35.4013 16.5868 35.5407 15.1941 36.2636 13.9534C37.517 11.8022 40.3114 10.4518 43.0957 9.61055C38.5397 6.10078 32.9845 4.19824 27.1362 4.19824C26.2093 4.19824 25.2901 4.24746 24.3806 4.3418C25.1633 5.85832 26.7103 7.08832 28.2158 8.28492C29.627 9.40652 30.9598 10.466 31.7402 11.8083C32.4578 13.0424 32.9568 15.0109 31.2589 17.3805C29.6798 19.5837 26.4976 20.3147 23.4202 21.0214C20.8818 21.6045 18.0046 22.2653 17.8513 23.5133C17.676 24.937 17.9858 26.3525 18.6407 27.1196C19.013 27.5557 19.4784 27.7691 20.1061 27.7911L20.6961 27.8113C25.6583 27.9796 26.077 28.1411 29.6563 31.2675L29.739 31.3398C30.4875 31.9913 30.9178 33.0252 30.9812 34.3279C31.0473 35.6858 30.6864 37.5935 29.4752 38.8746C29.2527 39.1109 29.108 39.3846 28.9077 39.7635C28.557 40.4271 28.0766 41.3358 26.9728 42.2651C26.2205 42.8991 25.9148 44.5198 25.6452 45.9497C25.2977 47.7919 24.9386 49.6966 23.419 50.5942C22.7561 50.9859 22.1693 51.122 21.6739 51.1221C21.227 51.1221 20.8547 51.0112 20.5679 50.8774C18.9322 50.1136 18.6034 48.1194 18.1873 45.5947C17.6043 42.0587 16.9882 39.3157 14.8468 38.8369C13.7232 38.5853 12.9134 37.8552 12.5659 36.7809C12.3388 36.0782 12.3341 35.345 12.3293 34.5687C12.3231 33.5453 12.3166 32.4871 11.7948 31.5045C11.6032 31.1556 10.376 30.022 7.98199 28.935C6.41344 28.2227 4.0466 27.3969 1.13309 27.1421C1.00348 28.2032 0.9375 29.2788 0.9375 30.3646C0.9375 37.3538 3.66281 43.9248 8.61141 48.8672C13.5599 53.8092 20.1387 56.531 27.1361 56.531C31.6682 56.531 36.0768 55.362 39.9653 53.1784C36.9472 49.6105 34.242 45.1752 34.242 39.932L34.2422 39.9323ZM9.4677 25.7488C12.153 26.9732 14.1837 28.5083 14.8998 29.8554C15.827 31.6018 15.8374 33.3043 15.845 34.5475C15.8469 34.8434 15.8491 35.2173 15.8722 35.4695C20.2747 36.6429 21.1037 41.6727 21.656 45.0232C21.7321 45.4849 21.8262 46.0557 21.9299 46.5711C22.0321 46.1387 22.1222 45.6607 22.1905 45.2986C22.5502 43.3915 22.9978 41.018 24.7079 39.5766C25.2885 39.0879 25.5028 38.6823 25.7994 38.1211C26.0655 37.6178 26.3671 37.0472 26.9183 36.4621C27.4907 35.8567 27.583 34.3762 27.3696 33.9383L27.3434 33.9155C25.8601 32.6198 25.1155 31.9696 24.4235 31.7034C23.7165 31.4316 22.6673 31.3959 20.577 31.3252L19.983 31.3048C18.3693 31.248 16.9807 30.5902 15.9668 29.4023C14.6629 27.8748 14.063 25.5129 14.362 23.0843C14.8159 19.3908 18.969 18.4369 22.6332 17.5952C24.9599 17.0607 27.597 16.4551 28.4013 15.3329C29.3071 14.0689 29.2021 13.5599 26.0284 11.0372C24.1297 9.52805 21.8102 7.68422 20.8202 4.96055C16.2381 6.08836 12.0347 8.44371 8.61164 11.8623C5.28398 15.1857 2.96355 19.2463 1.79918 23.6746C5.05113 24.0081 7.695 24.9405 9.4677 25.7488Z" fill="#0B57CF"/>
</svg>
