<svg width="47" height="47" viewBox="0 0 47 47" fill="none" xmlns="http://www.w3.org/2000/svg">
<g clip-path="url(#clip0_342_9467)">
<path d="M40.8634 6.06641H5.83594V41.0939H40.8634V6.06641Z" fill="#ECEFF1"/>
<path d="M23.3516 27.262L40.8653 41.092V13.7881L23.3516 27.262Z" fill="#CFD8DC"/>
<path d="M42.3249 6.06738H40.8654L23.3517 19.8974L5.83791 6.06738H4.37843C1.96154 6.06738 0 8.02892 0 10.4458V36.7164C0 39.1333 1.96154 41.0949 4.37843 41.0949H5.83791V13.7909L23.3517 27.2619L40.8654 13.788V41.0949H42.3249C44.7418 41.0949 46.7033 39.1333 46.7033 36.7164V10.4458C46.7033 8.02892 44.7418 6.06738 42.3249 6.06738Z" fill="#F44336"/>
</g>
<defs>
<clipPath id="clip0_342_9467">
<rect width="46.7033" height="46.7033" fill="white" transform="translate(0 0.229492)"/>
</clipPath>
</defs>
</svg>
