<svg width="48" height="48" viewBox="0 0 48 48" fill="none" xmlns="http://www.w3.org/2000/svg">
<path d="M0.10285 1.15137C0.0366077 1.33179 0.00174322 1.52228 0 1.71451V25.7145C0.00182246 25.907 0.0366077 26.0978 0.10285 26.2785L14.1334 13.7145L0.10285 1.15137Z" fill="white"/>
<path d="M20.5824 14.8668L19.7305 15.6296C18.745 16.502 17.2642 16.5042 16.2762 15.6347L15.4191 14.8633L1.42188 27.399C1.51854 27.4177 1.61664 27.4277 1.71505 27.4291H24.0342C24.1678 24.8491 25.0999 22.3744 26.7016 20.3474L20.5824 14.8668Z" fill="white"/>
<path d="M18.5905 14.3486L34.5797 0.0343098C34.4832 0.0141835 34.3851 0.00269407 34.2865 0H1.71505C1.61664 0.0012678 1.51854 0.0112517 1.42188 0.030031L17.4162 14.3538C17.7532 14.6476 18.256 14.6455 18.5905 14.3486Z" fill="white"/>
<path d="M27.8441 19.0682C30.0478 16.9361 32.9401 15.6605 36.0006 15.4708V1.71451C35.9989 1.52228 35.964 1.33179 35.8978 1.15137L21.8672 13.7145L27.8441 19.0682Z" fill="white"/>
<path d="M36.8571 35.143C40.6442 35.143 43.7143 32.0729 43.7143 28.2858C43.7143 24.4988 40.6442 21.4287 36.8571 21.4287C33.07 21.4287 30 24.4988 30 28.2858C30 32.0729 33.07 35.143 36.8571 35.143Z" fill="white"/>
<path d="M36.8616 44.4129C38.9762 43.0287 48.0044 36.6 48.0044 28.0818C47.946 21.992 42.9695 17.0987 36.8796 17.1429H36.8436C30.7537 17.0987 25.7772 21.992 25.7188 28.0818C25.7188 36.6 34.7471 43.0286 36.8616 44.4129ZM28.2902 28.2857C28.2902 23.5518 32.1277 19.7143 36.8616 19.7143C41.5955 19.7143 45.433 23.5518 45.433 28.2857C45.433 33.0196 41.5955 36.8572 36.8616 36.8572C32.1299 36.852 28.2954 33.0175 28.2902 28.2857Z" fill="white"/>
<path d="M40.6708 43.752C39.6025 44.631 38.4762 45.4372 37.2996 46.1648C37.0296 46.3253 36.6935 46.3253 36.4236 46.1648C35.247 45.4372 34.1208 44.631 33.0525 43.752C32.2107 44.2285 31.7188 44.8354 31.7188 45.4285C31.7188 46.6448 33.8307 47.9999 36.8616 47.9999C39.8924 47.9999 42.0044 46.6448 42.0044 45.4285C42.0045 44.8354 41.5124 44.2286 40.6708 43.752Z" fill="white"/>
<path d="M17.9977 47.1424C17.5244 47.1424 17.1406 46.7587 17.1406 46.2853V32.571C17.1406 32.0976 17.5244 31.7139 17.9977 31.7139C18.4711 31.7139 18.8548 32.0976 18.8548 32.571V46.2853C18.8549 46.7587 18.4712 47.1424 17.9977 47.1424Z" fill="white"/>
<path d="M13.7165 41.1424C13.2431 41.1424 12.8594 40.7587 12.8594 40.2853V32.571C12.8594 32.0976 13.2431 31.7139 13.7165 31.7139C14.1899 31.7139 14.5736 32.0976 14.5736 32.571V40.2853C14.5737 40.7587 14.1899 41.1424 13.7165 41.1424Z" fill="white"/>
<path d="M22.2868 41.1424C21.8134 41.1424 21.4297 40.7587 21.4297 40.2853V32.571C21.4297 32.0976 21.8134 31.7139 22.2868 31.7139C22.7602 31.7139 23.1439 32.0976 23.1439 32.571V40.2853C23.144 40.7587 22.7602 41.1424 22.2868 41.1424Z" fill="white"/>
</svg>
