<svg width="60" height="61" viewBox="0 0 60 61" fill="none" xmlns="http://www.w3.org/2000/svg">
<g clip-path="url(#clip0_342_9576)">
<path d="M58.8984 26.5332C54.0352 21.7754 42.9258 12.5176 30 12.5176C26.9766 12.541 23.9766 13.0098 21.0938 13.9238L25.3242 18.1543C31.4766 15.5762 38.5664 18.4707 41.1445 24.623C42.3984 27.6113 42.3984 30.9863 41.1445 33.9863L47.8125 40.6543C52.6523 37.7832 56.5195 34.3848 58.8984 32.0527C60.3633 30.5996 60.3633 27.9746 58.8984 26.5332Z" fill="#0B57CF"/>
<path d="M30 20.8379C29.3906 20.8379 28.793 20.9082 28.1953 21.0254L38.2617 31.0918C39.2578 26.5332 36.3633 22.0215 31.793 21.0254C31.207 20.8965 30.6094 20.8379 30 20.8379Z" fill="#0B57CF"/>
<path d="M8.61133 7.79492C7.48633 6.66992 5.66992 6.66992 4.54492 7.79492C3.41992 8.91992 3.41992 10.7363 4.54492 11.8613L11.2246 18.5293C6.83008 21.2715 3.31445 24.377 1.09961 26.5449C-0.376953 27.9863 -0.376953 30.6113 1.09961 32.0527C5.95117 36.7988 17.0723 46.0566 29.998 46.0566C32.5996 46.0449 35.1894 45.6934 37.709 45.0019L45.6426 52.9355C46.7676 54.0605 48.584 54.0605 49.709 52.9355C50.834 51.8105 50.834 49.9941 49.709 48.8691L8.61133 7.79492ZM29.998 41.3809C23.3184 41.3809 17.9043 35.9668 17.916 29.2871C17.916 28.0918 18.0918 26.8965 18.4434 25.748L21.5605 28.8652C21.5488 29.0059 21.5488 29.1582 21.5488 29.2988C21.5488 33.9629 25.334 37.748 29.998 37.748C30.1387 37.748 30.291 37.748 30.4316 37.7363L33.5488 40.8535C32.4004 41.1934 31.2051 41.3809 29.998 41.3809Z" fill="#0B57CF"/>
</g>
<defs>
<clipPath id="clip0_342_9576">
<rect width="60" height="60" fill="white" transform="translate(0 0.365234)"/>
</clipPath>
</defs>
</svg>
