<svg width="30" height="31" viewBox="0 0 30 31" fill="none" xmlns="http://www.w3.org/2000/svg">
<g clip-path="url(#clip0_342_12469)">
<path d="M25.3627 5.45508H4.98859C4.75381 5.45451 4.52757 5.54313 4.35564 5.70302C4.18371 5.86291 4.07893 6.08214 4.0625 6.31635V17.5591C4.07893 17.7933 4.18371 18.0126 4.35564 18.1725C4.52757 18.3323 4.75381 18.421 4.98859 18.4204H25.3627C25.5974 18.421 25.8237 18.3323 25.9956 18.1725C26.1675 18.0126 26.2723 17.7933 26.2888 17.5591V6.31635C26.2723 6.08214 26.1675 5.86291 25.9956 5.70302C25.8237 5.54313 25.5974 5.45451 25.3627 5.45508Z" fill="#0B57CF"/>
<path d="M28.991 24.8295L26.2127 19.7916C26.125 19.6466 25.9991 19.5285 25.8489 19.4501C25.6987 19.3717 25.5298 19.3361 25.3607 19.347H4.98666C4.81847 19.3351 4.65024 19.3694 4.50009 19.4461C4.34995 19.5228 4.22359 19.6391 4.13465 19.7823L1.35637 24.8202C1.29649 24.9265 1.27143 25.0489 1.28472 25.1702C1.29801 25.2914 1.34898 25.4055 1.43046 25.4963C1.52865 25.6044 1.64894 25.6901 1.78315 25.7476C1.91737 25.8051 2.06239 25.8331 2.20838 25.8297H28.139C28.2827 25.833 28.4256 25.8058 28.558 25.7499C28.6905 25.694 28.8097 25.6108 28.9077 25.5056C28.9906 25.4158 29.0433 25.3023 29.0582 25.181C29.0732 25.0597 29.0497 24.9367 28.991 24.8295ZM17.0259 23.9775H13.3215C13.0759 23.9775 12.8403 23.8799 12.6667 23.7063C12.493 23.5326 12.3954 23.297 12.3954 23.0514C12.3954 22.8058 12.493 22.5702 12.6667 22.3966C12.8403 22.2229 13.0759 22.1253 13.3215 22.1253H17.0259C17.2715 22.1253 17.507 22.2229 17.6807 22.3966C17.8544 22.5702 17.952 22.8058 17.952 23.0514C17.952 23.297 17.8544 23.5326 17.6807 23.7063C17.507 23.8799 17.2715 23.9775 17.0259 23.9775Z" fill="#0B57CF"/>
</g>
<defs>
<clipPath id="clip0_342_12469">
<rect width="29.635" height="29.635" fill="white" transform="translate(0.359375 0.824219)"/>
</clipPath>
</defs>
</svg>
