<svg width="24" height="24" viewBox="0 0 24 24" fill="none" xmlns="http://www.w3.org/2000/svg">
<path d="M11.8013 20.7384C12.0023 20.7384 12.1651 20.5755 12.1651 20.3746C12.1651 20.1736 12.0023 20.0107 11.8013 20.0107C11.6004 20.0107 11.4375 20.1736 11.4375 20.3746C11.4375 20.5755 11.6004 20.7384 11.8013 20.7384Z" fill="#0B57CF"/>
<path d="M15.4438 1.0918H8.16731C7.58854 1.09237 7.03363 1.32255 6.62438 1.7318C6.21513 2.14106 5.98495 2.69596 5.98438 3.27473H17.6267C17.6261 2.69596 17.3959 2.14106 16.9867 1.7318C16.5774 1.32255 16.0225 1.09237 15.4438 1.0918ZM12.897 2.54709H10.7141C10.6176 2.54709 10.525 2.50876 10.4568 2.44053C10.3886 2.3723 10.3502 2.27976 10.3502 2.18326C10.3502 2.08677 10.3886 1.99423 10.4568 1.926C10.525 1.85777 10.6176 1.81944 10.7141 1.81944H12.897C12.9935 1.81944 13.086 1.85777 13.1543 1.926C13.2225 1.99423 13.2608 2.08677 13.2608 2.18326C13.2608 2.27976 13.2225 2.3723 13.1543 2.44053C13.086 2.50876 12.9935 2.54709 12.897 2.54709Z" fill="#0B57CF"/>
<path d="M5.98438 4.00195H17.6267V17.8272H5.98438V4.00195Z" fill="#0B57CF"/>
<path d="M5.98438 20.011C5.98495 20.5897 6.21513 21.1446 6.62438 21.5539C7.03363 21.9631 7.58854 22.1933 8.16731 22.1939H15.4438C16.0225 22.1933 16.5774 21.9631 16.9867 21.5539C17.3959 21.1446 17.6261 20.5897 17.6267 20.011V18.5557H5.98438V20.011ZM11.8055 19.2833C12.0214 19.2833 12.2324 19.3473 12.4119 19.4673C12.5914 19.5872 12.7313 19.7577 12.8139 19.9571C12.8965 20.1565 12.9181 20.376 12.876 20.5877C12.8339 20.7994 12.73 20.9939 12.5773 21.1466C12.4247 21.2992 12.2302 21.4032 12.0185 21.4453C11.8067 21.4874 11.5873 21.4658 11.3879 21.3832C11.1884 21.3006 11.0179 21.1607 10.898 20.9812C10.7781 20.8017 10.7141 20.5906 10.7141 20.3748C10.7141 20.0853 10.8291 19.8077 11.0338 19.603C11.2384 19.3983 11.5161 19.2833 11.8055 19.2833Z" fill="#0B57CF"/>
</svg>
