<svg width="76" height="78" viewBox="0 0 76 78" fill="none" xmlns="http://www.w3.org/2000/svg">
<rect width="76" height="78" rx="10" fill="#EFF6FE"/>
<path d="M51.375 52.1375C51.375 49.6375 49.0125 47.4625 45.0875 46.25C47.7625 42.1625 50.5 36.7125 50.5 31.5C50.5 24.6125 44.8875 19 38 19C31.1 19 25.5 24.6125 25.5 31.5C25.5 36.7125 28.2375 42.1625 30.9125 46.25C26.9875 47.4625 24.625 49.6375 24.625 52.1375C24.7625 61.2874 51.2376 61.2874 51.375 52.1375ZM38 24.1625C42.05 24.1625 45.3375 27.4624 45.3375 31.5C45.3375 35.55 42.05 38.8375 38 38.8375C33.95 38.8375 30.6625 35.55 30.6625 31.5C30.6625 27.4625 33.95 24.1625 38 24.1625ZM38 56.375C28.6375 56.2874 22.375 51.4625 32.5125 48.5625C33.85 50.375 35.2625 52.1375 36.775 53.7874C37.425 54.7 38.5625 54.7 39.225 53.7874C40.7375 52.1375 42.15 50.375 43.4875 48.5625C53.625 51.4625 47.3625 56.2874 38 56.375Z" fill="#0B57CF"/>
<path d="M37.9984 36.1754C40.5734 36.1754 42.6609 34.0754 42.6609 31.5004C42.6609 28.9254 40.5734 26.8379 37.9984 26.8379C35.4234 26.8379 33.3359 28.9254 33.3359 31.5004C33.3359 34.0754 35.4234 36.1754 37.9984 36.1754Z" fill="#0B57CF"/>
</svg>
