<svg width="76" height="78" viewBox="0 0 76 78" fill="none" xmlns="http://www.w3.org/2000/svg">
<rect width="76" height="78" rx="10" fill="#EFF6FE"/>
<path d="M51.265 39.9812V36.9518C51.265 36.3989 51.1561 35.8514 50.9445 35.3405C50.7329 34.8296 50.4227 34.3655 50.0317 33.9745C49.6407 33.5835 49.1766 33.2733 48.6657 33.0617C48.1549 32.8501 47.6073 32.7412 47.0544 32.7412C46.5014 32.7412 45.9539 32.8501 45.443 33.0617C44.9322 33.2733 44.468 33.5835 44.077 33.9745C43.686 34.3655 43.3759 34.8296 43.1643 35.3405C42.9527 35.8514 42.8437 36.3989 42.8438 36.9518V39.9812H44.3831V36.9493C44.3831 36.2409 44.6646 35.5614 45.1655 35.0605C45.6665 34.5595 46.3459 34.2781 47.0544 34.2781C47.7628 34.2781 48.4423 34.5595 48.9432 35.0605C49.4442 35.5614 49.7256 36.2409 49.7256 36.9493V39.9812H51.265Z" fill="#0B57CF"/>
<path d="M45.6328 36.9486V39.9817H48.4753V36.9486C48.4753 36.5717 48.3256 36.2102 48.059 35.9436C47.7925 35.6771 47.431 35.5273 47.0541 35.5273C46.6771 35.5273 46.3156 35.6771 46.0491 35.9436C45.7826 36.2102 45.6328 36.5717 45.6328 36.9486Z" fill="#0B57CF"/>
<path d="M37.8875 56.4324C40.1684 55.3022 42.2231 53.7639 43.95 51.8937H40.9512C40.5468 51.8932 40.159 51.7323 39.873 51.4463C39.587 51.1603 39.4261 50.7725 39.4256 50.368V41.5074C39.4263 41.1056 39.5853 40.7203 39.8682 40.4351C40.1511 40.1498 40.5351 39.9876 40.9369 39.9837C40.9417 39.9834 40.9465 39.9834 40.9512 39.9837H41.5956V36.9511C41.5942 35.6947 42.0261 34.4762 42.8186 33.5013C43.6111 32.5263 44.7156 31.8545 45.9459 31.5993C47.1761 31.344 48.4567 31.5209 49.5717 32.1001C50.6867 32.6793 51.5677 33.6253 52.0662 34.7787C52.5281 32.6638 52.8559 30.5218 53.0475 28.3655C52.2814 28.4516 51.5058 28.3811 50.7678 28.1585C50.0297 27.9359 49.3445 27.5658 48.7537 27.0705C47.654 25.9881 46.9977 24.5344 46.9131 22.9936C41.0172 21.0005 34.6284 21.0075 28.7369 23.0136C28.6616 24.5597 28.0109 26.0217 26.9125 27.1124C26.3236 27.6096 25.6401 27.9822 24.9032 28.2078C24.1663 28.4334 23.3913 28.5072 22.625 28.4249C22.9712 32.2611 25.2575 50.333 37.8875 56.4324ZM31.3031 44.9018C31.3853 45.0457 31.407 45.2165 31.3633 45.3764C31.3197 45.5363 31.2143 45.6724 31.0703 45.7546C30.9263 45.8368 30.7556 45.8585 30.5957 45.8148C30.4358 45.7711 30.2997 45.6657 30.2175 45.5218C27.405 40.5918 26.0925 35.0105 25.4906 31.1974C25.4673 31.0507 25.4971 30.9005 25.5745 30.7737C25.6519 30.6469 25.772 30.5518 25.9131 30.5055C27.0528 30.1397 28.0859 29.501 28.9225 28.6449C29.8379 27.6941 30.5036 26.5313 30.86 25.2605C30.8905 25.1571 30.9472 25.0633 31.0246 24.9883C31.102 24.9133 31.1976 24.8596 31.3019 24.8324C33.4375 24.2818 35.6339 24.0021 37.8394 23.9999C40.0419 23.9993 42.2354 24.2812 44.3662 24.8386C44.4693 24.8661 44.5635 24.9195 44.6401 24.9936C44.7167 25.0678 44.773 25.1603 44.8037 25.2624C45.0713 26.1686 45.4911 27.0226 46.045 27.788C46.143 27.9218 46.1838 28.089 46.1585 28.2529C46.1331 28.4167 46.0438 28.5638 45.91 28.6618C45.7762 28.7597 45.609 28.8006 45.4452 28.7752C45.2813 28.7499 45.1342 28.6605 45.0362 28.5268C44.4682 27.7449 44.0231 26.8807 43.7162 25.9643C41.7933 25.4898 39.82 25.2499 37.8394 25.2499C35.8552 25.2521 33.8783 25.4896 31.95 25.9574C31.5219 27.2929 30.792 28.5119 29.8169 29.5199C28.9677 30.3914 27.9418 31.071 26.8081 31.513C27.4288 35.198 28.7044 40.3499 31.3031 44.9018Z" fill="#0B57CF"/>
<path d="M47.0534 47.3249C47.3686 47.325 47.6766 47.2317 47.9387 47.0567C48.2008 46.8818 48.4051 46.633 48.5257 46.3419C48.6464 46.0508 48.6781 45.7305 48.6167 45.4214C48.5553 45.1123 48.4036 44.8284 48.1808 44.6055C47.958 44.3826 47.6741 44.2309 47.3651 44.1693C47.056 44.1078 46.7357 44.1393 46.4445 44.2599C46.1534 44.3804 45.9046 44.5846 45.7295 44.8466C45.5544 45.1086 45.4609 45.4167 45.4609 45.7318C45.4613 46.1541 45.6291 46.559 45.9277 46.8577C46.2263 47.1564 46.6311 47.3244 47.0534 47.3249Z" fill="#0B57CF"/>
<path d="M40.6719 41.508V50.3687C40.672 50.4417 40.7011 50.5117 40.7528 50.5634C40.8044 50.615 40.8744 50.6441 40.9475 50.6443H53.1575C53.1937 50.6443 53.2295 50.6372 53.263 50.6233C53.2964 50.6095 53.3268 50.5892 53.3524 50.5636C53.378 50.538 53.3983 50.5076 53.4121 50.4742C53.426 50.4407 53.4331 50.4049 53.4331 50.3687V41.508C53.4331 41.4719 53.426 41.436 53.4121 41.4026C53.3983 41.3691 53.378 41.3387 53.3524 41.3132C53.3268 41.2876 53.2964 41.2673 53.263 41.2534C53.2295 41.2396 53.1937 41.2324 53.1575 41.2324H40.9475C40.8744 41.2326 40.8044 41.2617 40.7528 41.3133C40.7011 41.365 40.672 41.435 40.6719 41.508ZM50.9487 44.3412C50.9487 44.1754 51.0146 44.0164 51.1318 43.8992C51.249 43.782 51.408 43.7162 51.5737 43.7162C51.7395 43.7162 51.8985 43.782 52.0157 43.8992C52.1329 44.0164 52.1987 44.1754 52.1987 44.3412V47.1255C52.1987 47.2913 52.1329 47.4503 52.0157 47.5675C51.8985 47.6847 51.7395 47.7505 51.5737 47.7505C51.408 47.7505 51.249 47.6847 51.1318 47.5675C51.0146 47.4503 50.9487 47.2913 50.9487 47.1255V44.3412ZM45.125 43.658C45.1587 43.6227 45.1965 43.5915 45.2375 43.5649C45.7444 43.132 46.3884 42.8928 47.055 42.8899C47.7232 42.8847 48.3721 43.1132 48.8896 43.5359C49.4071 43.9585 49.7607 44.5488 49.889 45.2045C50.0174 45.8602 49.9125 46.5402 49.5925 47.1268C49.2725 47.7134 48.7576 48.1697 48.1368 48.4168C47.516 48.6638 46.8283 48.6862 46.1928 48.4799C45.5572 48.2736 45.0138 47.8516 44.6565 47.287C44.2991 46.7224 44.1504 46.0507 44.2359 45.388C44.3215 44.7253 44.636 44.1134 45.125 43.658ZM41.9062 44.3412C41.9062 44.1754 41.9721 44.0164 42.0893 43.8992C42.2065 43.782 42.3655 43.7162 42.5312 43.7162C42.697 43.7162 42.856 43.782 42.9732 43.8992C43.0904 44.0164 43.1562 44.1754 43.1562 44.3412V47.1255C43.1562 47.2913 43.0904 47.4503 42.9732 47.5675C42.856 47.6847 42.697 47.7505 42.5312 47.7505C42.3655 47.7505 42.2065 47.6847 42.0893 47.5675C41.9721 47.4503 41.9062 47.2913 41.9062 47.1255V44.3412Z" fill="#0B57CF"/>
</svg>
