<svg width="132" height="126" viewBox="0 0 132 126" fill="none" xmlns="http://www.w3.org/2000/svg">
<path d="M31.6536 63.3037C25.4705 63.2981 19.4247 65.1267 14.2813 68.5583C9.13792 71.9899 5.12809 76.8702 2.75929 82.5816C0.390495 88.2929 -0.230793 94.5786 0.974052 100.643C2.1789 106.708 5.15572 112.279 9.5278 116.651C13.8999 121.023 19.4707 124 25.5352 125.205C31.5998 126.41 37.8855 125.788 43.5968 123.42C49.3082 121.051 54.1885 117.041 57.6202 111.898C61.0518 106.754 62.8806 100.709 62.875 94.5255C62.8668 86.2475 59.5748 78.311 53.7215 72.4575C47.8681 66.6041 39.9316 63.312 31.6536 63.3037ZM18.8526 81.7813H31.625C32.1855 81.7792 32.7408 81.8877 33.2593 82.1007C33.7777 82.3137 34.2489 82.627 34.646 83.0225C35.0431 83.4181 35.3581 83.8881 35.5731 84.4057C35.7881 84.9233 35.8988 85.4783 35.8988 86.0387C35.8988 86.5992 35.7881 87.1542 35.5731 87.6718C35.3581 88.1894 35.0431 88.6594 34.646 89.055C34.2489 89.4505 33.7777 89.7638 33.2593 89.9768C32.7408 90.1898 32.1855 90.2983 31.625 90.2962H18.8526C18.2922 90.2983 17.7368 90.1898 17.2184 89.9768C16.7 89.7638 16.2287 89.4505 15.8316 89.055C15.4346 88.6594 15.1195 88.1894 14.9045 87.6718C14.6895 87.1542 14.5789 86.5992 14.5789 86.0387C14.5789 85.4783 14.6895 84.9233 14.9045 84.4057C15.1195 83.8881 15.4346 83.4181 15.8316 83.0225C16.2287 82.627 16.7 82.3137 17.2184 82.1007C17.7368 81.8877 18.2922 81.7792 18.8526 81.7813ZM44.3978 107.326H18.8526C18.2922 107.328 17.7368 107.22 17.2184 107.007C16.7 106.794 16.2287 106.48 15.8316 106.085C15.4346 105.689 15.1195 105.219 14.9045 104.702C14.6895 104.184 14.5789 103.629 14.5789 103.069C14.5789 102.508 14.6895 101.953 14.9045 101.436C15.1195 100.918 15.4346 100.448 15.8316 100.052C16.2287 99.6569 16.7 99.3437 17.2184 99.1307C17.7368 98.9177 18.2922 98.8091 18.8526 98.8113H44.3978C45.5241 98.8156 46.6028 99.2661 47.3977 100.064C48.1926 100.862 48.6389 101.942 48.6389 103.069C48.6389 104.195 48.1926 105.275 47.3977 106.073C46.6028 106.871 45.5241 107.322 44.3978 107.326ZM100.375 0.803711H37.875C19.125 0.803711 6.625 10.1787 6.625 32.0537V51.6575C6.63172 52.7045 6.90117 53.7331 7.40865 54.6489C7.91612 55.5647 8.64538 56.3385 9.52956 56.8993C10.4137 57.4601 11.4246 57.79 12.4693 57.8587C13.5141 57.9274 14.5594 57.7327 15.5094 57.2925C22.122 54.4191 29.3809 53.3597 36.5389 54.2235C43.6969 55.0872 50.4954 57.8428 56.2347 62.2067C61.974 66.5706 66.4467 72.3851 69.1925 79.0517C71.9383 85.7183 72.8579 92.9962 71.8567 100.136C71.7512 101.009 71.8333 101.895 72.0975 102.733C72.3618 103.572 72.802 104.345 73.3888 104.999C73.9757 105.654 74.6956 106.176 75.5004 106.531C76.3051 106.885 77.1763 107.063 78.0556 107.054H100.375C119.125 107.054 131.625 97.6787 131.625 75.8037V32.0537C131.625 10.1787 119.125 0.803711 100.375 0.803711ZM103.302 35.7128L83.7641 51.3408C79.553 54.5384 74.4108 56.2694 69.1233 56.2694C63.8358 56.2694 58.6936 54.5384 54.4825 51.3408L34.9484 35.7128C34.467 35.3288 34.066 34.8536 33.7683 34.3145C33.4707 33.7754 33.2822 33.1828 33.2137 32.5708C33.1453 31.9588 33.1981 31.3393 33.3693 30.7478C33.5404 30.1562 33.8265 29.6042 34.2111 29.1232C34.5958 28.6423 35.0715 28.2419 35.611 27.945C36.1505 27.6481 36.7432 27.4604 37.3553 27.3927C37.9674 27.3251 38.5869 27.3787 39.1782 27.5506C39.7696 27.7226 40.3212 28.0094 40.8016 28.3947L60.3391 44.0227C62.8919 45.8791 65.9671 46.8791 69.1235 46.8791C72.2799 46.8791 75.3551 45.8791 77.9079 44.0227L97.4483 28.3947C98.4189 27.6204 99.6572 27.2631 100.891 27.4011C102.125 27.5392 103.254 28.1613 104.029 29.1309C104.805 30.1005 105.164 31.3383 105.027 32.5724C104.891 33.8065 104.27 34.936 103.302 35.7128Z" fill="#0B57CF"/>
</svg>
