<svg width="76" height="78" viewBox="0 0 76 78" fill="none" xmlns="http://www.w3.org/2000/svg">
<rect width="76" height="78" rx="10" fill="#EFF6FE"/>
<path d="M54.5125 33.8006C53.7831 33.6946 53.087 33.4255 52.4761 33.0133C51.8651 32.601 51.355 32.0562 50.9838 31.4195C50.6126 30.7827 50.3898 30.0704 50.332 29.3357C50.2742 28.6009 50.3829 27.8625 50.65 27.1756C50.8198 26.7265 50.8449 26.2355 50.7216 25.7715C50.5983 25.3075 50.3329 24.8937 49.9625 24.5881C48.3276 23.2152 46.4666 22.1366 44.4625 21.4006C44.0062 21.2311 43.508 21.2099 43.0389 21.3401C42.5698 21.4702 42.1538 21.7451 41.85 22.1256C41.3929 22.7102 40.8086 23.183 40.1415 23.5081C39.4745 23.8333 38.7421 24.0023 38 24.0023C37.2579 24.0023 36.5256 23.8333 35.8585 23.5081C35.1914 23.183 34.6072 22.7102 34.15 22.1256C33.8463 21.7451 33.4303 21.4702 32.9612 21.3401C32.4921 21.2099 31.9939 21.2311 31.5375 21.4006C29.6871 22.0801 27.957 23.0507 26.4125 24.2756C26.0232 24.5838 25.7428 25.0086 25.6123 25.4877C25.4819 25.9668 25.5082 26.4751 25.6875 26.9381C25.976 27.6432 26.0951 28.4061 26.0355 29.1656C25.9758 29.9251 25.739 30.66 25.344 31.3115C24.949 31.9629 24.4069 32.5127 23.761 32.9167C23.1152 33.3208 22.3836 33.5678 21.625 33.6381C21.1325 33.6908 20.67 33.9001 20.3054 34.2354C19.9409 34.5707 19.6936 35.0142 19.6 35.5006C19.3673 36.6527 19.25 37.8252 19.25 39.0006C19.2483 39.9846 19.3278 40.9671 19.4875 41.9381C19.567 42.4401 19.8097 42.9018 20.178 43.2521C20.5463 43.6023 21.0197 43.8214 21.525 43.8756C22.3003 43.9483 23.0468 44.2057 23.7022 44.6262C24.3575 45.0467 24.9026 45.6181 25.2918 46.2925C25.681 46.9669 25.903 47.7247 25.9393 48.5025C25.9755 49.2803 25.8249 50.0554 25.5 50.7631C25.2874 51.2234 25.2347 51.7415 25.3502 52.2352C25.4657 52.7289 25.7428 53.1699 26.1375 53.4881C27.7627 54.8361 29.6057 55.8971 31.5875 56.6256C31.841 56.7134 32.1069 56.7598 32.375 56.7631C32.7427 56.7623 33.1049 56.6733 33.4311 56.5037C33.7574 56.3341 34.0382 56.0887 34.25 55.7881C34.6955 55.139 35.2928 54.6084 35.9898 54.2425C36.6869 53.8765 37.4627 53.6862 38.25 53.6881C39.0128 53.6891 39.7649 53.8681 40.4463 54.211C41.1277 54.5539 41.7197 55.0511 42.175 55.6631C42.4779 56.0702 42.9069 56.3658 43.3953 56.5037C43.8837 56.6416 44.4039 56.6142 44.875 56.4256C46.6871 55.6963 48.3742 54.6883 49.875 53.4381C50.2521 53.1264 50.5205 52.7031 50.6418 52.2292C50.7631 51.7553 50.731 51.2551 50.55 50.8006C50.256 50.1046 50.1278 49.3497 50.1756 48.5957C50.2233 47.8416 50.4457 47.109 50.8251 46.4556C51.2045 45.8022 51.7306 45.2459 52.3619 44.8307C52.9932 44.4155 53.7123 44.1527 54.4625 44.0631C54.949 43.9958 55.4014 43.7754 55.7543 43.4338C56.1071 43.0922 56.3421 42.6471 56.425 42.1631C56.6258 41.1205 56.7345 40.0622 56.75 39.0006C56.7503 37.8808 56.6456 36.7634 56.4375 35.6631C56.3531 35.1897 56.1217 34.755 55.7761 34.4206C55.4306 34.0863 54.9884 33.8693 54.5125 33.8006ZM44.25 39.0006C44.25 40.2367 43.8835 41.4451 43.1967 42.4729C42.51 43.5007 41.5338 44.3018 40.3918 44.7748C39.2498 45.2479 37.9931 45.3717 36.7807 45.1305C35.5683 44.8893 34.4547 44.2941 33.5806 43.42C32.7065 42.5459 32.1113 41.4323 31.8701 40.2199C31.629 39.0075 31.7527 37.7509 32.2258 36.6088C32.6988 35.4668 33.4999 34.4907 34.5277 33.8039C35.5555 33.1172 36.7639 32.7506 38 32.7506C39.6576 32.7506 41.2473 33.4091 42.4194 34.5812C43.5915 35.7533 44.25 37.343 44.25 39.0006Z" fill="#0B57CF"/>
</svg>
